<svg width="25" height="13" viewBox="0 0 25 13" fill="none" xmlns="http://www.w3.org/2000/svg">
<path d="M14.2063 6.5C14.2063 3.75781 11.6564 1 8.54647 1C8.17809 1 6.9638 1.00001 6.65986 1.00001C3.53401 1.00001 1 3.46245 1 6.5C1 9.11749 2.8816 11.308 5.40211 11.8637C5.80662 11.953 6.22757 12 6.65986 12" stroke="white" stroke-width="2" stroke-linecap="round" stroke-linejoin="round"/>
<path d="M9.8042 6.50001C9.8042 9.24219 12.3541 12 15.4641 12C15.8324 12 17.0468 12 17.3506 12C20.4766 12 23.0105 9.53757 23.0105 6.50001C23.0105 3.88251 21.129 1.69207 18.6084 1.13629C18.2039 1.04709 17.7829 1 17.3506 1" stroke="white" stroke-width="2" stroke-linecap="round" stroke-linejoin="round"/>
</svg>
