<?xml version="1.0" encoding="UTF-8"?>
<svg id="Layer_2" data-name="Layer 2" xmlns="http://www.w3.org/2000/svg" viewBox="0 0 101.16 101.22">
  <defs>
    <style>
      .cls-1 {
        fill: #3f3f3f;
      }

      .cls-1, .cls-2, .cls-3, .cls-4 {
        stroke-width: 0px;
      }

      .cls-2 {
        fill: #935000;
      }

      .cls-3 {
        fill: #ff8e1d;
      }

      .cls-4 {
        fill: #fff;
      }
    </style>
  </defs>
  <g id="Layer_1-2" data-name="Layer 1">
    <g>
      <path class="cls-2" d="m100.1,67.15l-5.67,13.2c-1.65,3.85-4.9,6.77-8.9,7.99l-39.3,12.07c-8.57,2.62-17.78-1.32-21.79-9.33L1.51,45.23c-1.88-3.75-2.01-8.13-.35-11.98l5.6-13.05c-1.33,3.21-1.33,6.97.38,10.39l23.05,46.07c4.13,8.26,13.63,12.33,22.46,9.62l39.65-12.17c3.67-1.13,6.4-3.75,7.8-6.96Z"/>
      <path class="cls-3" d="m99.83,56.52l-23.05-46.07C72.65,2.19,63.15-1.88,54.32.83L14.67,13c-3.76,1.16-6.54,3.88-7.91,7.2-1.33,3.21-1.33,6.97.38,10.39l23.05,46.07c4.13,8.26,13.63,12.33,22.46,9.62l39.65-12.17c3.67-1.13,6.4-3.75,7.8-6.96l.15-.35c1.29-3.18,1.27-6.9-.42-10.28Zm-9.18,14.27l-40.19,12.33c-6.48,1.98-13.44-1-16.47-7.06L10.68,29.48c-2.6-5.18.09-11.46,5.64-13.16L56.51,3.99c6.48-1.98,13.44,1,16.47,7.06l23.31,46.58c2.6,5.18-.09,11.46-5.64,13.16Z"/>
      <path class="cls-1" d="m96.29,57.63l-23.31-46.58c-3.03-6.06-9.99-9.04-16.47-7.06l-40.19,12.33c-5.55,1.7-8.24,7.98-5.64,13.16l23.31,46.58c3.03,6.06,9.99,9.04,16.47,7.06l40.19-12.33c5.55-1.7,8.24-7.98,5.64-13.16ZM18.92,28.19c-.38-.77-.56-1.57-.56-2.37,0-2.24,1.43-4.36,3.75-5.07l35.15-10.79c3.43-1.06,7.11.52,8.72,3.73h0c1.47,2.94-.05,6.49-3.19,7.45l-35.15,10.79c-3.43,1.05-7.11-.53-8.72-3.74Zm39.52,40.62c-1.19,1.34-2.84,2.03-4.5,2.03-1.41,0-2.83-.5-3.97-1.51-3.58-3.16-6.5-7.03-10.05-12.24-2.97-4.37-5.08-8.31-6.83-12.77-1.22-3.08.3-6.56,3.38-7.78,3.09-1.21,6.57.31,7.78,3.39,1.44,3.65,3.11,6.76,5.59,10.4,3.62,5.32,5.74,7.94,8.08,10.01,2.48,2.2,2.71,5.99.52,8.47Zm24.64-7.66c-1.18,1.34-2.83,2.02-4.49,2.02-1.42,0-2.83-.5-3.98-1.51-3.57-3.16-6.49-7.03-10.04-12.24-2.98-4.37-5.08-8.31-6.84-12.77-1.21-3.08.31-6.56,3.39-7.78,3.08-1.21,6.57.31,7.78,3.39,1.43,3.64,3.1,6.76,5.59,10.4,3.62,5.32,5.73,7.94,8.08,10.02,2.48,2.19,2.71,5.98.51,8.47Z"/>
      <path class="cls-3" d="m62.79,21.14l-35.15,10.79c-3.43,1.05-7.11-.53-8.72-3.74-.38-.77-.56-1.57-.56-2.37,0-2.24,1.43-4.36,3.75-5.07l35.15-10.79c3.43-1.06,7.11.52,8.72,3.73h0c1.47,2.94-.05,6.49-3.19,7.45Z"/>
      <path class="cls-4" d="m58.44,68.81c-1.19,1.34-2.84,2.03-4.5,2.03-1.41,0-2.83-.5-3.97-1.51-3.58-3.16-6.5-7.03-10.05-12.24-2.97-4.37-5.08-8.31-6.83-12.77-1.22-3.08.3-6.56,3.38-7.78,3.09-1.21,6.57.31,7.78,3.39,1.44,3.65,3.11,6.76,5.59,10.4,3.62,5.32,5.74,7.94,8.08,10.01,2.48,2.2,2.71,5.99.52,8.47Z"/>
      <path class="cls-4" d="m83.08,61.15c-1.18,1.34-2.83,2.02-4.49,2.02-1.42,0-2.83-.5-3.98-1.51-3.57-3.16-6.49-7.03-10.04-12.24-2.98-4.37-5.08-8.31-6.84-12.77-1.21-3.08.31-6.56,3.39-7.78,3.08-1.21,6.57.31,7.78,3.39,1.43,3.64,3.1,6.76,5.59,10.4,3.62,5.32,5.73,7.94,8.08,10.02,2.48,2.19,2.71,5.98.51,8.47Z"/>
    </g>
  </g>
</svg>